<svg xmlns="http://www.w3.org/2000/svg" xmlns:xlink="http://www.w3.org/1999/xlink" width="500" zoomAndPan="magnify" viewBox="0 0 375 374.999991" height="500" preserveAspectRatio="xMidYMid meet" version="1.0"><path fill="#ffffff" d="M 363.601562 243.097656 L 266.433594 243.097656 C 265.96875 243.097656 265.507812 243.046875 265.054688 242.949219 C 264.597656 242.851562 264.160156 242.703125 263.738281 242.507812 C 263.316406 242.316406 262.917969 242.078125 262.546875 241.796875 C 262.175781 241.519531 261.839844 241.203125 261.535156 240.847656 C 261.234375 240.496094 260.972656 240.113281 260.753906 239.703125 C 260.53125 239.292969 260.359375 238.867188 260.230469 238.417969 C 260.105469 237.96875 260.027344 237.515625 260 237.050781 C 259.972656 236.585938 259.992188 236.125 260.066406 235.664062 L 275.601562 135.800781 C 275.660156 135.425781 275.75 135.058594 275.875 134.695312 C 276 134.335938 276.15625 133.988281 276.339844 133.65625 C 276.527344 133.324219 276.738281 133.007812 276.980469 132.714844 C 277.222656 132.417969 277.488281 132.148438 277.777344 131.898438 C 278.066406 131.652344 278.375 131.429688 278.707031 131.238281 C 279.035156 131.046875 279.375 130.882812 279.734375 130.75 C 280.09375 130.617188 280.457031 130.519531 280.832031 130.449219 C 281.210938 130.382812 281.585938 130.351562 281.96875 130.347656 L 363.601562 130.347656 C 364.304688 130.347656 365.003906 130.277344 365.691406 130.136719 C 366.382812 130 367.050781 129.792969 367.703125 129.523438 C 368.351562 129.253906 368.96875 128.921875 369.554688 128.53125 C 370.136719 128.136719 370.679688 127.691406 371.175781 127.195312 C 371.671875 126.695312 372.117188 126.152344 372.507812 125.566406 C 372.898438 124.980469 373.226562 124.363281 373.496094 123.714844 C 373.765625 123.0625 373.96875 122.394531 374.105469 121.703125 C 374.242188 121.011719 374.308594 120.316406 374.308594 119.613281 C 374.308594 118.90625 374.242188 118.210938 374.105469 117.519531 C 373.96875 116.828125 373.765625 116.160156 373.496094 115.507812 C 373.226562 114.859375 372.898438 114.242188 372.507812 113.65625 C 372.117188 113.070312 371.671875 112.527344 371.175781 112.027344 C 370.679688 111.53125 370.136719 111.085938 369.554688 110.695312 C 368.96875 110.300781 368.351562 109.96875 367.703125 109.699219 C 367.050781 109.429688 366.382812 109.222656 365.691406 109.085938 C 365.003906 108.945312 364.304688 108.875 363.601562 108.875 L 287.3125 108.875 C 286.847656 108.875 286.386719 108.824219 285.933594 108.726562 C 285.480469 108.625 285.039062 108.480469 284.617188 108.285156 C 284.195312 108.089844 283.796875 107.855469 283.425781 107.574219 C 283.054688 107.292969 282.71875 106.976562 282.417969 106.625 C 282.113281 106.269531 281.851562 105.890625 281.632812 105.480469 C 281.414062 105.070312 281.238281 104.640625 281.113281 104.195312 C 280.984375 103.746094 280.90625 103.289062 280.878906 102.828125 C 280.851562 102.363281 280.875 101.902344 280.945312 101.441406 L 294.792969 12.425781 C 294.902344 11.730469 294.941406 11.027344 294.910156 10.324219 C 294.878906 9.621094 294.78125 8.925781 294.613281 8.242188 C 294.449219 7.558594 294.214844 6.894531 293.917969 6.257812 C 293.621094 5.617188 293.265625 5.011719 292.847656 4.445312 C 292.433594 3.875 291.964844 3.351562 291.449219 2.875 C 290.929688 2.398438 290.367188 1.976562 289.765625 1.609375 C 289.164062 1.242188 288.535156 0.9375 287.871094 0.695312 C 287.210938 0.453125 286.53125 0.277344 285.835938 0.167969 C 284.429688 -0.0625 283.03125 -0.0078125 281.644531 0.328125 C 280.261719 0.664062 278.996094 1.257812 277.847656 2.105469 C 276.695312 2.945312 275.75 3.972656 275.007812 5.191406 C 274.269531 6.40625 273.789062 7.71875 273.574219 9.128906 L 258.90625 103.421875 C 258.847656 103.796875 258.757812 104.167969 258.632812 104.527344 C 258.507812 104.886719 258.351562 105.234375 258.167969 105.566406 C 257.980469 105.898438 257.769531 106.214844 257.527344 106.507812 C 257.285156 106.804688 257.019531 107.074219 256.730469 107.324219 C 256.441406 107.570312 256.132812 107.792969 255.804688 107.984375 C 255.472656 108.179688 255.132812 108.339844 254.773438 108.472656 C 254.417969 108.605469 254.050781 108.707031 253.675781 108.773438 C 253.300781 108.839844 252.921875 108.875 252.539062 108.875 L 148.792969 108.875 C 148.328125 108.875 147.867188 108.824219 147.414062 108.726562 C 146.960938 108.625 146.519531 108.480469 146.097656 108.285156 C 145.675781 108.089844 145.277344 107.855469 144.90625 107.574219 C 144.535156 107.292969 144.199219 106.976562 143.898438 106.625 C 143.59375 106.269531 143.332031 105.890625 143.113281 105.480469 C 142.894531 105.070312 142.71875 104.640625 142.59375 104.195312 C 142.464844 103.746094 142.386719 103.289062 142.359375 102.828125 C 142.332031 102.363281 142.355469 101.902344 142.425781 101.441406 L 156.277344 12.425781 C 156.382812 11.730469 156.421875 11.027344 156.390625 10.324219 C 156.363281 9.621094 156.261719 8.925781 156.097656 8.242188 C 155.929688 7.558594 155.695312 6.894531 155.398438 6.257812 C 155.101562 5.617188 154.746094 5.011719 154.332031 4.445312 C 153.914062 3.875 153.449219 3.351562 152.929688 2.875 C 152.410156 2.398438 151.851562 1.976562 151.25 1.609375 C 150.648438 1.242188 150.015625 0.9375 149.351562 0.695312 C 148.691406 0.453125 148.011719 0.277344 147.316406 0.167969 C 145.910156 -0.0585938 144.511719 -0.0078125 143.128906 0.328125 C 141.742188 0.664062 140.476562 1.257812 139.332031 2.105469 C 138.179688 2.945312 137.230469 3.972656 136.492188 5.191406 C 135.75 6.40625 135.273438 7.71875 135.054688 9.128906 L 120.386719 103.421875 C 120.328125 103.796875 120.238281 104.167969 120.113281 104.527344 C 119.988281 104.886719 119.835938 105.234375 119.648438 105.566406 C 119.464844 105.898438 119.25 106.214844 119.007812 106.507812 C 118.765625 106.804688 118.5 107.074219 118.210938 107.324219 C 117.921875 107.570312 117.613281 107.792969 117.285156 107.984375 C 116.957031 108.179688 116.613281 108.339844 116.253906 108.472656 C 115.898438 108.605469 115.53125 108.707031 115.15625 108.773438 C 114.78125 108.839844 114.402344 108.875 114.019531 108.875 L 11.398438 108.875 C 10.695312 108.875 9.996094 108.945312 9.308594 109.085938 C 8.617188 109.222656 7.949219 109.429688 7.296875 109.699219 C 6.648438 109.96875 6.03125 110.300781 5.445312 110.695312 C 4.863281 111.085938 4.320312 111.53125 3.824219 112.027344 C 3.328125 112.527344 2.882812 113.070312 2.492188 113.65625 C 2.101562 114.242188 1.773438 114.859375 1.503906 115.507812 C 1.234375 116.160156 1.03125 116.828125 0.894531 117.519531 C 0.757812 118.210938 0.691406 118.90625 0.691406 119.613281 C 0.691406 120.316406 0.757812 121.011719 0.894531 121.703125 C 1.03125 122.394531 1.234375 123.0625 1.503906 123.714844 C 1.773438 124.363281 2.101562 124.980469 2.492188 125.566406 C 2.882812 126.152344 3.328125 126.695312 3.824219 127.195312 C 4.320312 127.691406 4.863281 128.136719 5.445312 128.53125 C 6.03125 128.921875 6.648438 129.253906 7.296875 129.523438 C 7.949219 129.792969 8.617188 130 9.308594 130.136719 C 9.996094 130.277344 10.695312 130.347656 11.398438 130.347656 L 108.675781 130.347656 C 109.140625 130.347656 109.601562 130.398438 110.054688 130.496094 C 110.511719 130.597656 110.949219 130.742188 111.371094 130.9375 C 111.792969 131.132812 112.191406 131.367188 112.5625 131.648438 C 112.933594 131.929688 113.269531 132.246094 113.574219 132.597656 C 113.875 132.953125 114.136719 133.332031 114.355469 133.742188 C 114.578125 134.152344 114.75 134.582031 114.875 135.027344 C 115.003906 135.476562 115.082031 135.933594 115.109375 136.398438 C 115.136719 136.859375 115.117188 137.324219 115.042969 137.78125 L 99.507812 237.644531 C 99.449219 238.019531 99.359375 238.390625 99.234375 238.75 C 99.109375 239.109375 98.953125 239.457031 98.769531 239.789062 C 98.582031 240.125 98.371094 240.4375 98.128906 240.734375 C 97.886719 241.027344 97.621094 241.300781 97.332031 241.546875 C 97.042969 241.796875 96.734375 242.015625 96.402344 242.207031 C 96.074219 242.402344 95.730469 242.566406 95.375 242.695312 C 95.015625 242.828125 94.652344 242.929688 94.273438 242.996094 C 93.898438 243.0625 93.523438 243.097656 93.140625 243.097656 L 11.398438 243.097656 C 10.691406 243.097656 9.996094 243.167969 9.304688 243.304688 C 8.613281 243.441406 7.941406 243.644531 7.289062 243.914062 C 6.636719 244.183594 6.019531 244.515625 5.433594 244.90625 C 4.847656 245.300781 4.304688 245.742188 3.804688 246.242188 C 3.308594 246.742188 2.863281 247.285156 2.46875 247.871094 C 2.078125 248.457031 1.746094 249.074219 1.476562 249.726562 C 1.207031 250.378906 1.003906 251.050781 0.867188 251.742188 C 0.730469 252.433594 0.660156 253.128906 0.660156 253.835938 C 0.660156 254.539062 0.730469 255.238281 0.867188 255.929688 C 1.003906 256.621094 1.207031 257.292969 1.476562 257.945312 C 1.746094 258.597656 2.078125 259.214844 2.46875 259.800781 C 2.863281 260.386719 3.308594 260.929688 3.804688 261.429688 C 4.304688 261.925781 4.847656 262.371094 5.433594 262.761719 C 6.019531 263.15625 6.636719 263.484375 7.289062 263.757812 C 7.941406 264.027344 8.613281 264.230469 9.304688 264.367188 C 9.996094 264.503906 10.691406 264.574219 11.398438 264.574219 L 87.796875 264.574219 C 88.261719 264.574219 88.722656 264.621094 89.175781 264.722656 C 89.628906 264.820312 90.070312 264.96875 90.492188 265.160156 C 90.914062 265.355469 91.3125 265.59375 91.683594 265.871094 C 92.054688 266.152344 92.390625 266.46875 92.691406 266.824219 C 92.996094 267.175781 93.257812 267.558594 93.476562 267.96875 C 93.695312 268.378906 93.871094 268.804688 93.996094 269.253906 C 94.125 269.699219 94.199219 270.15625 94.230469 270.621094 C 94.257812 271.085938 94.234375 271.546875 94.164062 272.007812 L 80.207031 361.742188 C 80.097656 362.441406 80.058594 363.140625 80.089844 363.84375 C 80.121094 364.546875 80.21875 365.242188 80.386719 365.925781 C 80.550781 366.609375 80.785156 367.273438 81.082031 367.910156 C 81.378906 368.550781 81.734375 369.15625 82.152344 369.722656 C 82.566406 370.292969 83.035156 370.816406 83.550781 371.292969 C 84.070312 371.769531 84.632812 372.191406 85.234375 372.558594 C 85.835938 372.925781 86.464844 373.230469 87.128906 373.472656 C 87.789062 373.714844 88.46875 373.890625 89.164062 374 C 90.570312 374.230469 91.96875 374.175781 93.355469 373.839844 C 94.738281 373.503906 96.003906 372.910156 97.152344 372.0625 C 98.304688 371.222656 99.25 370.195312 99.992188 368.976562 C 100.730469 367.761719 101.210938 366.449219 101.425781 365.039062 L 116.203125 270.027344 C 116.261719 269.648438 116.351562 269.28125 116.476562 268.921875 C 116.601562 268.558594 116.753906 268.214844 116.941406 267.878906 C 117.125 267.546875 117.339844 267.234375 117.582031 266.9375 C 117.824219 266.644531 118.089844 266.371094 118.378906 266.125 C 118.667969 265.875 118.976562 265.65625 119.304688 265.460938 C 119.632812 265.269531 119.976562 265.105469 120.335938 264.972656 C 120.691406 264.839844 121.058594 264.742188 121.433594 264.675781 C 121.808594 264.605469 122.1875 264.574219 122.570312 264.574219 L 226.316406 264.574219 C 226.78125 264.574219 227.242188 264.621094 227.695312 264.722656 C 228.148438 264.820312 228.589844 264.964844 229.011719 265.160156 C 229.433594 265.355469 229.828125 265.59375 230.203125 265.871094 C 230.574219 266.152344 230.910156 266.46875 231.210938 266.824219 C 231.515625 267.175781 231.777344 267.558594 231.996094 267.96875 C 232.214844 268.375 232.390625 268.804688 232.515625 269.253906 C 232.644531 269.699219 232.71875 270.15625 232.75 270.621094 C 232.777344 271.085938 232.753906 271.546875 232.683594 272.003906 L 218.722656 361.742188 C 218.617188 362.441406 218.578125 363.140625 218.609375 363.84375 C 218.636719 364.546875 218.738281 365.242188 218.902344 365.925781 C 219.070312 366.609375 219.304688 367.273438 219.601562 367.910156 C 219.898438 368.550781 220.253906 369.15625 220.667969 369.722656 C 221.085938 370.292969 221.550781 370.816406 222.070312 371.292969 C 222.589844 371.769531 223.148438 372.191406 223.75 372.558594 C 224.351562 372.925781 224.984375 373.230469 225.648438 373.472656 C 226.308594 373.714844 226.988281 373.890625 227.683594 374 C 229.089844 374.230469 230.488281 374.175781 231.875 373.839844 C 233.257812 373.503906 234.523438 372.910156 235.667969 372.0625 C 236.820312 371.222656 237.769531 370.195312 238.507812 368.976562 C 239.25 367.761719 239.726562 366.449219 239.945312 365.039062 L 254.71875 270.027344 C 254.78125 269.648438 254.871094 269.28125 254.996094 268.921875 C 255.121094 268.558594 255.273438 268.214844 255.460938 267.878906 C 255.644531 267.546875 255.859375 267.234375 256.101562 266.9375 C 256.34375 266.644531 256.609375 266.371094 256.898438 266.125 C 257.1875 265.875 257.496094 265.65625 257.824219 265.460938 C 258.152344 265.269531 258.496094 265.105469 258.855469 264.972656 C 259.210938 264.839844 259.578125 264.742188 259.953125 264.675781 C 260.328125 264.605469 260.707031 264.574219 261.089844 264.574219 L 363.601562 264.574219 C 364.308594 264.574219 365.003906 264.503906 365.695312 264.367188 C 366.386719 264.230469 367.058594 264.027344 367.710938 263.753906 C 368.363281 263.484375 368.980469 263.15625 369.566406 262.761719 C 370.152344 262.371094 370.695312 261.925781 371.195312 261.429688 C 371.691406 260.929688 372.136719 260.386719 372.53125 259.800781 C 372.921875 259.214844 373.253906 258.597656 373.523438 257.945312 C 373.792969 257.292969 373.996094 256.621094 374.132812 255.929688 C 374.269531 255.238281 374.339844 254.539062 374.339844 253.835938 C 374.339844 253.128906 374.269531 252.433594 374.132812 251.742188 C 373.996094 251.046875 373.792969 250.378906 373.523438 249.726562 C 373.253906 249.074219 372.921875 248.457031 372.53125 247.871094 C 372.136719 247.285156 371.691406 246.742188 371.195312 246.242188 C 370.695312 245.742188 370.152344 245.296875 369.566406 244.90625 C 368.980469 244.515625 368.363281 244.183594 367.710938 243.914062 C 367.058594 243.644531 366.386719 243.441406 365.695312 243.304688 C 365.003906 243.167969 364.308594 243.097656 363.601562 243.097656 Z M 238.027344 237.644531 C 237.96875 238.019531 237.875 238.390625 237.753906 238.75 C 237.628906 239.109375 237.472656 239.457031 237.289062 239.789062 C 237.101562 240.125 236.886719 240.4375 236.648438 240.734375 C 236.40625 241.027344 236.140625 241.300781 235.851562 241.546875 C 235.5625 241.796875 235.25 242.015625 234.921875 242.207031 C 234.59375 242.402344 234.25 242.566406 233.894531 242.695312 C 233.535156 242.828125 233.167969 242.929688 232.792969 242.996094 C 232.417969 243.0625 232.039062 243.097656 231.660156 243.097656 L 127.914062 243.097656 C 127.449219 243.097656 126.988281 243.046875 126.535156 242.949219 C 126.078125 242.851562 125.640625 242.703125 125.21875 242.511719 C 124.796875 242.316406 124.398438 242.078125 124.027344 241.796875 C 123.65625 241.519531 123.320312 241.203125 123.015625 240.847656 C 122.714844 240.496094 122.453125 240.113281 122.234375 239.703125 C 122.011719 239.292969 121.839844 238.867188 121.714844 238.417969 C 121.585938 237.96875 121.507812 237.515625 121.480469 237.050781 C 121.453125 236.585938 121.472656 236.125 121.546875 235.664062 L 137.082031 135.800781 C 137.140625 135.425781 137.230469 135.058594 137.355469 134.695312 C 137.480469 134.335938 137.636719 133.988281 137.820312 133.65625 C 138.007812 133.324219 138.222656 133.007812 138.460938 132.714844 C 138.703125 132.417969 138.96875 132.148438 139.257812 131.898438 C 139.546875 131.652344 139.855469 131.429688 140.1875 131.238281 C 140.515625 131.046875 140.859375 130.882812 141.214844 130.75 C 141.574219 130.617188 141.9375 130.519531 142.316406 130.449219 C 142.691406 130.382812 143.066406 130.351562 143.449219 130.347656 L 247.195312 130.347656 C 247.660156 130.347656 248.121094 130.398438 248.574219 130.496094 C 249.03125 130.597656 249.46875 130.742188 249.890625 130.9375 C 250.3125 131.132812 250.710938 131.367188 251.082031 131.648438 C 251.453125 131.929688 251.789062 132.246094 252.09375 132.597656 C 252.394531 132.953125 252.65625 133.332031 252.875 133.742188 C 253.09375 134.152344 253.269531 134.582031 253.394531 135.027344 C 253.523438 135.476562 253.601562 135.933594 253.628906 136.398438 C 253.65625 136.859375 253.636719 137.324219 253.5625 137.78125 Z M 238.027344 237.644531 " fill-opacity="1" fill-rule="nonzero"/></svg>