<svg xmlns="http://www.w3.org/2000/svg" xmlns:xlink="http://www.w3.org/1999/xlink" width="500" zoomAndPan="magnify" viewBox="0 0 375 374.999991" height="500" preserveAspectRatio="xMidYMid meet" version="1.0"><defs><clipPath id="6c45d5fa41"><path d="M 20.15625 76 L 80 76 L 80 117 L 20.15625 117 Z M 20.15625 76 " clip-rule="nonzero"/></clipPath><clipPath id="c127f6f020"><path d="M 295 76 L 354.65625 76 L 354.65625 117 L 295 117 Z M 295 76 " clip-rule="nonzero"/></clipPath></defs><path fill="#ffffff" d="M 289.75 181.617188 C 288.789062 172.417969 286.808594 153.269531 274.332031 135.261719 C 267.742188 125.761719 259.097656 117.792969 248.640625 111.554688 C 240.167969 106.511719 230.484375 102.59375 219.824219 99.886719 C 201.683594 95.28125 186.078125 95.550781 181.742188 95.734375 C 181.675781 95.734375 181.605469 95.734375 181.554688 95.734375 C 177.203125 95.550781 161.597656 95.28125 143.457031 99.886719 C 132.796875 102.59375 123.097656 106.511719 114.640625 111.554688 C 104.183594 117.777344 95.539062 125.761719 88.949219 135.261719 C 76.472656 153.25 74.492188 172.402344 73.53125 181.597656 L 73.464844 182.171875 C 72.960938 186.996094 72.050781 199.875 74.609375 215.175781 C 77.785156 234.289062 85.082031 250.648438 96.28125 263.765625 C 107.949219 277.417969 119.71875 282.980469 129.183594 287.453125 C 139.40625 292.28125 146.785156 295.757812 151.058594 306.804688 C 151.394531 307.664062 151.695312 308.539062 151.964844 309.410156 C 148.550781 309.429688 145.777344 312.21875 145.777344 315.632812 L 145.777344 320.929688 C 145.777344 322.121094 146.113281 323.25 146.703125 324.191406 C 146.113281 325.132812 145.777344 326.257812 145.777344 327.453125 L 145.777344 332.75 C 145.777344 333.941406 146.113281 335.070312 146.703125 336.011719 C 146.113281 336.953125 145.777344 338.078125 145.777344 339.273438 L 145.777344 344.566406 C 145.777344 347.5625 147.898438 350.050781 150.703125 350.65625 C 150.839844 355.078125 151.980469 360.171875 156.269531 364.929688 C 161.9375 371.183594 171.753906 374.949219 182.53125 375 C 182.597656 375 182.667969 375 182.734375 375 C 187.574219 375 192.351562 374.226562 196.554688 372.765625 C 201.261719 371.117188 205.113281 368.710938 207.988281 365.585938 C 212.425781 360.757812 213.433594 355.363281 213.417969 350.636719 C 216.191406 350.015625 218.277344 347.527344 218.277344 344.566406 L 218.277344 339.273438 C 218.277344 338.078125 217.941406 336.953125 217.351562 336.011719 C 217.941406 335.070312 218.277344 333.941406 218.277344 332.75 L 218.277344 327.453125 C 218.277344 326.257812 217.941406 325.132812 217.351562 324.191406 C 217.941406 323.25 218.277344 322.121094 218.277344 320.929688 L 218.277344 315.632812 C 218.277344 312.253906 215.550781 309.480469 212.191406 309.410156 C 212.359375 308.90625 212.527344 308.402344 212.710938 307.914062 C 216.847656 296.820312 224.160156 293.222656 234.300781 288.246094 C 243.765625 283.585938 255.535156 277.804688 267.085938 263.730469 C 273.222656 256.230469 278.25 247.691406 282.03125 238.34375 C 285.125 230.675781 287.394531 222.386719 288.789062 213.726562 C 291.179688 198.832031 290.335938 186.726562 289.867188 182.203125 Z M 207.71875 316.136719 C 207.71875 316.136719 207.734375 316.136719 207.734375 316.136719 C 207.734375 316.136719 207.75 316.136719 207.75 316.136719 L 211.5 316.136719 L 211.5 320.425781 L 152.46875 320.425781 L 152.46875 316.136719 L 156.234375 316.136719 C 156.234375 316.136719 156.253906 316.136719 156.253906 316.136719 Z M 209.515625 344.0625 C 209.5 344.0625 209.484375 344.0625 209.464844 344.0625 L 154.46875 344.0625 C 154.421875 344.0625 154.351562 344.046875 154.300781 344.046875 C 154.101562 344.03125 153.882812 344.046875 153.695312 344.0625 L 152.488281 344.0625 L 152.488281 339.777344 L 155.628906 339.777344 C 155.628906 339.777344 155.628906 339.777344 155.648438 339.777344 C 155.648438 339.777344 155.648438 339.777344 155.664062 339.777344 L 208.105469 339.777344 C 208.105469 339.777344 208.105469 339.777344 208.121094 339.777344 C 208.121094 339.777344 208.121094 339.777344 208.136719 339.777344 L 211.515625 339.777344 L 211.515625 344.0625 L 210.238281 344.0625 C 210.003906 344.046875 209.769531 344.03125 209.515625 344.0625 Z M 211.5 332.246094 L 152.46875 332.246094 L 152.46875 327.957031 L 211.5 327.957031 Z M 202.992188 361.027344 C 198.789062 365.601562 191.140625 368.308594 182.515625 368.273438 C 173.585938 368.242188 165.632812 365.300781 161.210938 360.421875 C 158.824219 357.785156 157.613281 354.789062 157.414062 350.804688 L 206.640625 350.804688 C 206.640625 355.210938 205.515625 358.304688 202.992188 361.027344 Z M 261.824219 259.460938 C 251.195312 272.40625 240.621094 277.617188 231.273438 282.207031 C 226.0625 284.765625 221.152344 287.183594 216.898438 290.632812 C 212.039062 294.566406 208.675781 299.324219 206.355469 305.578125 C 205.886719 306.855469 205.464844 308.132812 205.113281 309.429688 L 158.925781 309.429688 C 158.472656 307.730469 157.933594 306.050781 157.296875 304.402344 C 154.890625 298.179688 151.476562 293.472656 146.550781 289.605469 C 142.246094 286.226562 137.289062 283.871094 132.042969 281.402344 C 122.695312 276.980469 112.101562 271.984375 101.375 259.425781 C 77.199219 231.113281 78.996094 193.703125 80.140625 182.910156 L 80.207031 182.320312 C 81.183594 173.007812 82.980469 155.691406 94.464844 139.113281 C 120.894531 100.980469 175.152344 102.222656 181.269531 102.476562 C 181.523438 102.492188 181.773438 102.492188 182.027344 102.476562 C 188.128906 102.207031 242.386719 100.960938 268.816406 139.113281 C 280.300781 155.691406 282.117188 173.023438 283.074219 182.320312 L 283.140625 182.894531 C 283.898438 190.390625 286.554688 229.296875 261.824219 259.460938 Z M 261.824219 259.460938 " fill-opacity="1" fill-rule="nonzero"/><path fill="#ffffff" d="M 220.699219 151.386719 C 212.207031 143.652344 200.875 139.734375 186.988281 139.734375 C 177.890625 139.734375 169.769531 141.550781 162.84375 145.113281 C 155.816406 148.730469 150.335938 153.90625 146.570312 160.464844 C 144.011719 164.902344 142.316406 169.828125 141.492188 175.09375 C 141.070312 177.847656 141.859375 180.640625 143.675781 182.757812 C 145.476562 184.859375 148.117188 186.070312 150.890625 186.070312 L 159.246094 186.070312 C 163.835938 186.070312 167.769531 182.777344 168.609375 178.234375 C 169.265625 174.636719 170.746094 171.8125 173.132812 169.578125 C 176.496094 166.433594 181.085938 164.902344 187.1875 164.902344 C 193.257812 164.902344 197.796875 166.464844 201.09375 169.710938 C 204.371094 172.921875 205.953125 177.363281 205.953125 183.28125 C 205.953125 191.332031 203.3125 196.578125 197.898438 199.320312 C 191.796875 202.394531 182.699219 203.960938 170.847656 203.960938 C 168.257812 203.960938 165.820312 204.984375 164.019531 206.851562 C 162.222656 208.71875 161.261719 211.171875 161.347656 213.777344 L 161.917969 231.683594 C 162.085938 236.847656 166.257812 240.898438 171.417969 240.898438 L 178.664062 240.898438 C 183.742188 240.898438 187.910156 236.929688 188.164062 231.871094 L 188.347656 228.152344 C 188.417969 226.742188 189.542969 225.617188 190.9375 225.515625 C 202.675781 224.691406 212.476562 221.210938 220.074219 215.15625 C 229.085938 207.976562 233.660156 197.25 233.660156 183.28125 C 233.625 169.945312 229.289062 159.203125 220.699219 151.386719 Z M 215.871094 209.910156 C 209.367188 215.089844 200.808594 218.082031 190.46875 218.804688 C 185.675781 219.140625 181.875 223.007812 181.625 227.816406 L 181.4375 231.535156 C 181.371094 233.011719 180.144531 234.171875 178.664062 234.171875 L 171.417969 234.171875 C 169.90625 234.171875 168.675781 232.996094 168.628906 231.484375 L 168.054688 213.578125 C 168.039062 212.820312 168.308594 212.097656 168.847656 211.558594 C 169.367188 211.023438 170.089844 210.71875 170.847656 210.71875 C 183.945312 210.71875 193.78125 208.96875 200.925781 205.355469 C 204.859375 203.371094 207.851562 200.445312 209.820312 196.644531 C 211.71875 192.996094 212.675781 188.507812 212.675781 183.3125 C 212.675781 175.613281 210.375 169.441406 205.800781 164.953125 C 201.261719 160.480469 194.992188 158.210938 187.1875 158.210938 C 179.421875 158.210938 173.132812 160.398438 168.542969 164.703125 C 165.113281 167.914062 162.910156 172.066406 162.003906 177.058594 C 161.75 178.402344 160.605469 179.378906 159.261719 179.378906 L 150.90625 179.378906 C 149.796875 179.378906 149.105469 178.773438 148.804688 178.402344 C 148.484375 178.035156 147.980469 177.261719 148.164062 176.132812 C 148.855469 171.695312 150.285156 167.542969 152.417969 163.828125 C 155.53125 158.394531 160.085938 154.125 165.953125 151.097656 C 171.921875 148.023438 179 146.476562 187.019531 146.476562 C 199.175781 146.476562 208.996094 149.804688 216.207031 156.378906 C 223.4375 162.953125 226.933594 171.761719 226.933594 183.3125 C 226.902344 195.285156 223.304688 203.992188 215.871094 209.910156 Z M 215.871094 209.910156 " fill-opacity="1" fill-rule="nonzero"/><path fill="#ffffff" d="M 174.679688 248.617188 C 169.804688 248.617188 165.632812 250.3125 162.304688 253.644531 C 158.976562 256.972656 157.277344 261.140625 157.277344 266.015625 C 157.277344 270.894531 158.976562 275.0625 162.304688 278.390625 C 165.632812 281.722656 169.804688 283.417969 174.679688 283.417969 C 179.4375 283.417969 183.539062 281.722656 186.871094 278.390625 C 190.199219 275.0625 191.898438 270.894531 191.898438 266.015625 C 191.898438 261.140625 190.199219 256.972656 186.871094 253.644531 C 183.539062 250.3125 179.4375 248.617188 174.679688 248.617188 Z M 182.113281 273.652344 C 180.058594 275.703125 177.621094 276.710938 174.679688 276.710938 C 171.601562 276.710938 169.113281 275.71875 167.0625 273.652344 C 165.011719 271.597656 164.003906 269.09375 164.003906 266.035156 C 164.003906 262.957031 164.996094 260.46875 167.0625 258.417969 C 169.113281 256.367188 171.621094 255.359375 174.679688 255.359375 C 177.621094 255.359375 180.058594 256.351562 182.113281 258.417969 C 184.164062 260.46875 185.171875 262.972656 185.171875 266.035156 C 185.171875 269.09375 184.164062 271.582031 182.113281 273.652344 Z M 182.113281 273.652344 " fill-opacity="1" fill-rule="nonzero"/><path fill="#ffffff" d="M 188.230469 68.832031 C 189.710938 68.832031 190.90625 67.640625 190.90625 66.160156 L 190.90625 2.671875 C 190.90625 1.195312 189.710938 0 188.230469 0 C 186.75 0 185.558594 1.195312 185.558594 2.671875 L 185.558594 66.175781 C 185.558594 67.640625 186.75 68.832031 188.230469 68.832031 Z M 188.230469 68.832031 " fill-opacity="1" fill-rule="nonzero"/><path fill="#ffffff" d="M 122.171875 71.171875 C 122.660156 72.0625 123.566406 72.566406 124.507812 72.566406 C 124.945312 72.566406 125.382812 72.464844 125.789062 72.246094 C 127.082031 71.539062 127.554688 69.925781 126.847656 68.632812 L 96.414062 12.894531 C 95.707031 11.601562 94.09375 11.128906 92.800781 11.835938 C 91.503906 12.542969 91.035156 14.15625 91.742188 15.453125 Z M 122.171875 71.171875 " fill-opacity="1" fill-rule="nonzero"/><g clip-path="url(#6c45d5fa41)"><path fill="#ffffff" d="M 76.441406 116.902344 C 77.316406 116.902344 78.15625 116.480469 78.675781 115.691406 C 79.484375 114.464844 79.148438 112.800781 77.902344 111.992188 L 24.808594 77.171875 C 23.582031 76.363281 21.914062 76.703125 21.109375 77.945312 C 20.300781 79.171875 20.636719 80.835938 21.882812 81.644531 L 74.960938 116.480469 C 75.414062 116.765625 75.9375 116.902344 76.441406 116.902344 Z M 76.441406 116.902344 " fill-opacity="1" fill-rule="nonzero"/></g><path fill="#ffffff" d="M 249.230469 72.230469 C 249.632812 72.449219 250.070312 72.546875 250.507812 72.546875 C 251.449219 72.546875 252.375 72.042969 252.84375 71.152344 L 283.292969 15.433594 C 284 14.140625 283.527344 12.527344 282.234375 11.820312 C 280.9375 11.113281 279.324219 11.585938 278.617188 12.878906 L 248.171875 68.597656 C 247.445312 69.910156 247.933594 71.523438 249.230469 72.230469 Z M 249.230469 72.230469 " fill-opacity="1" fill-rule="nonzero"/><g clip-path="url(#c127f6f020)"><path fill="#ffffff" d="M 353.890625 77.945312 C 353.085938 76.71875 351.4375 76.363281 350.191406 77.171875 L 297.113281 112.007812 C 295.886719 112.816406 295.53125 114.464844 296.339844 115.707031 C 296.84375 116.480469 297.703125 116.917969 298.574219 116.917969 C 299.082031 116.917969 299.585938 116.785156 300.039062 116.480469 L 353.117188 81.644531 C 354.363281 80.820312 354.699219 79.171875 353.890625 77.945312 Z M 353.890625 77.945312 " fill-opacity="1" fill-rule="nonzero"/></g></svg>