<svg xmlns="http://www.w3.org/2000/svg" xmlns:xlink="http://www.w3.org/1999/xlink" width="500" zoomAndPan="magnify" viewBox="0 0 375 374.999991" height="500" preserveAspectRatio="xMidYMid meet" version="1.0"><defs><clipPath id="1062f30025"><path d="M 0 3.296875 L 372 3.296875 L 372 375 L 0 375 Z M 0 3.296875 " clip-rule="nonzero"/></clipPath></defs><path fill="#ffffff" d="M 277.539062 180.320312 L 133.519531 97.167969 C 126.375 93.042969 117.445312 98.199219 117.445312 106.449219 L 117.445312 272.753906 C 117.445312 280.296875 125.617188 285.015625 132.152344 281.242188 L 277.539062 197.300781 C 284.078125 193.527344 284.078125 184.09375 277.539062 180.320312 " fill-opacity="1" fill-rule="nonzero"/><g clip-path="url(#1062f30025)"><path fill="#ffffff" d="M 299.007812 302.304688 C 268.785156 332.535156 228.59375 349.179688 185.847656 349.179688 C 143.101562 349.179688 102.910156 332.535156 72.6875 302.304688 C 42.457031 272.082031 25.8125 231.890625 25.8125 189.144531 C 25.8125 146.398438 42.457031 106.207031 72.6875 75.980469 C 102.910156 45.753906 143.101562 29.109375 185.847656 29.109375 C 228.59375 29.109375 268.785156 45.753906 299.007812 75.980469 C 329.238281 106.207031 345.882812 146.398438 345.882812 189.144531 C 345.882812 231.890625 329.238281 272.082031 299.007812 302.304688 Z M 185.847656 3.296875 C 83.207031 3.296875 0 86.503906 0 189.144531 C 0 291.785156 83.207031 374.992188 185.847656 374.992188 C 288.488281 374.992188 371.695312 291.785156 371.695312 189.144531 C 371.695312 86.503906 288.488281 3.296875 185.847656 3.296875 " fill-opacity="1" fill-rule="nonzero"/></g></svg>