<!DOCTYPE svg PUBLIC "-//W3C//DTD SVG 1.1//EN" "http://www.w3.org/Graphics/SVG/1.1/DTD/svg11.dtd">
<!-- Uploaded to: SVG Repo, www.svgrepo.com, Transformed by: SVG Repo Mixer Tools -->
<svg width="800px" height="800px" viewBox="-10.24 -10.24 1044.48 1044.48" xmlns="http://www.w3.org/2000/svg" fill="#ffffff" stroke="#ffffff" stroke-width="8.192">
<g id="SVGRepo_bgCarrier" stroke-width="0"/>
<g id="SVGRepo_tracerCarrier" stroke-linecap="round" stroke-linejoin="round" stroke="#CCCCCC" stroke-width="36.864"/>
<g id="SVGRepo_iconCarrier">
<path fill="#ffffff" d="M512 896a384 384 0 1 0 0-768 384 384 0 0 0 0 768zm0 64a448 448 0 1 1 0-896 448 448 0 0 1 0 896z"/>
<path fill="#ffffff" d="M745.344 361.344a32 32 0 0 1 45.312 45.312l-288 288a32 32 0 0 1-45.312 0l-160-160a32 32 0 1 1 45.312-45.312L480 626.752l265.344-265.408z"/>
</g>
</svg>